<svg width="240" height="329" viewBox="0 0 240 329" fill="none" xmlns="http://www.w3.org/2000/svg">
<path d="M89.5 127.5L84.5043 127.293L84.4225 129.264L85.7092 130.76L89.5 127.5ZM98.1792 3.61408C96.3092 1.58218 93.1461 1.45093 91.1142 3.32089L58.0025 33.7941C55.9706 35.6641 55.8394 38.8272 57.7094 40.8591C59.5793 42.891 62.7424 43.0223 64.7743 41.1523L94.2069 14.065L121.294 43.4975C123.164 45.5295 126.327 45.6607 128.359 43.7907C130.391 41.9207 130.522 38.7576 128.652 36.7257L98.1792 3.61408ZM173.896 225.628L175.583 230.335L182.429 227.881L177.687 222.367L173.896 225.628ZM94.4957 127.707L99.4958 7.20727L89.5044 6.79269L84.5043 127.293L94.4957 127.707ZM23.0907 284.98L175.583 230.335L172.21 220.921L19.7173 275.566L23.0907 284.98ZM177.687 222.367L93.2908 124.24L85.7092 130.76L170.106 228.888L177.687 222.367Z" fill="#FAF4EE"/>
<circle cx="166.289" cy="222.289" r="30.1955" transform="rotate(13.1903 166.289 222.289)" fill="#A6D49F"/>
<circle cx="22.0886" cy="277.352" r="15" transform="rotate(13.1903 22.0886 277.352)" fill="#C4AFFF"/>
<path d="M107.686 89.3622C113.52 83.9521 122.88 89.1623 121.345 96.9656L117.928 114.336C117.242 117.826 118.883 121.361 121.994 123.093L137.48 131.713C144.436 135.585 142.371 146.085 134.466 147.035L116.869 149.151C113.334 149.576 110.476 152.226 109.789 155.716L106.373 173.086C104.838 180.89 94.2016 182.168 90.851 174.953L83.392 158.889C81.8936 155.662 78.4855 153.765 74.9502 154.19L57.3533 156.306C49.4483 157.256 44.9399 147.547 50.7741 142.137L63.7611 130.094C66.3702 127.675 67.1222 123.852 65.6236 120.624L58.1648 104.561C54.814 97.3455 62.6638 90.0662 69.6203 93.9386L85.1056 102.559C88.2166 104.29 92.0895 103.825 94.6985 101.405L107.686 89.3622Z" fill="#478BFF"/>
</svg>
