<svg width="132" height="46" viewBox="0 0 132 46" fill="none" xmlns="http://www.w3.org/2000/svg">
  <path d="m64.785 32.376-3.795-6.674h-1.627v6.674h-3.45V15.25h6.457c1.33 0 2.464.237 3.4.712.937.458 1.635 1.087 2.095 1.889.477.785.715 1.668.715 2.65 0 1.128-.329 2.15-.986 3.066-.657.9-1.634 1.521-2.932 1.865l4.115 6.943h-3.992Zm-5.422-9.25h2.883c.937 0 1.635-.22 2.095-.662.46-.458.69-1.088.69-1.889 0-.785-.23-1.39-.69-1.816-.46-.441-1.158-.662-2.094-.662h-2.884v5.03Zm13.028-7.875h3.622l-2.661 6.183h-2.366l1.404-6.183Zm24.85 0v17.125h-3.45V21.237l-4.608 11.139H86.57l-4.633-11.139v11.139h-3.45V15.25h3.918l5.47 12.733 5.472-12.733h3.893Zm2.524 10.28c0-1.374.271-2.593.813-3.656.559-1.063 1.306-1.88 2.243-2.453.952-.573 2.012-.859 3.179-.859 1.018 0 1.905.205 2.661.614.772.408 1.388.924 1.849 1.545v-1.938h3.474v13.592h-3.474v-1.988c-.444.638-1.06 1.17-1.849 1.595-.772.409-1.668.613-2.686.613a5.88 5.88 0 0 1-3.154-.883c-.937-.589-1.684-1.415-2.243-2.478-.542-1.08-.813-2.314-.813-3.704Zm10.745.049c0-.834-.165-1.546-.493-2.135-.329-.605-.773-1.063-1.331-1.373a3.501 3.501 0 0 0-1.799-.491c-.641 0-1.232.155-1.774.466-.543.31-.986.769-1.331 1.374-.329.589-.493 1.292-.493 2.11 0 .818.164 1.537.493 2.159.345.605.788 1.07 1.331 1.398.558.327 1.149.49 1.774.49a3.65 3.65 0 0 0 1.799-.465 3.585 3.585 0 0 0 1.331-1.374c.328-.605.493-1.325.493-2.16Zm10.294-4.833c.443-.622 1.052-1.137 1.823-1.546.789-.425 1.685-.638 2.687-.638 1.166 0 2.217.286 3.154.859.953.572 1.7 1.39 2.242 2.453.56 1.047.838 2.265.838 3.656 0 1.39-.278 2.625-.838 3.704-.542 1.063-1.289 1.89-2.242 2.478-.937.589-1.988.883-3.154.883-1.002 0-1.89-.204-2.662-.613-.755-.409-1.372-.924-1.848-1.546v8.415h-3.45V18.784h3.45v1.963Zm7.22 4.784c0-.818-.172-1.521-.517-2.11-.328-.605-.772-1.063-1.331-1.374a3.506 3.506 0 0 0-1.774-.466c-.624 0-1.216.163-1.775.49-.542.311-.985.77-1.33 1.374-.328.605-.493 1.317-.493 2.135 0 .818.165 1.529.493 2.134.345.605.788 1.071 1.33 1.399a3.6 3.6 0 0 0 1.775.466c.64 0 1.232-.164 1.774-.491a3.527 3.527 0 0 0 1.331-1.398c.345-.606.517-1.325.517-2.16Z" fill="#FAF4EE"/>
  <path d="M3 11.07v32.28l13.477-8.07 15.402 8.07 13.477-8.07V3L31.88 11.07 16.477 3 3 11.07ZM16.477 3v32.28M31.88 11.07v32.28" stroke="#7DC2FC" stroke-width="5" stroke-linecap="round" stroke-linejoin="round"/>
</svg>
